<svg width="158" height="45" viewBox="0 0 158 45" fill="none" xmlns="http://www.w3.org/2000/svg">
<path d="M6.88059 16.7065C5.57295 16.7065 4.4064 16.3864 3.38093 15.7464C2.35546 15.1063 1.54679 14.1979 0.954911 13.021C0.369913 11.8372 0.0774145 10.4367 0.0774145 8.81933C0.0774145 7.1951 0.369913 5.7911 0.954911 4.60734C1.54679 3.42358 2.35546 2.51168 3.38093 1.87162C4.4064 1.23156 5.57295 0.911536 6.88059 0.911536C8.19512 0.911536 9.36167 1.23156 10.3803 1.87162C11.3988 2.51168 12.2006 3.42358 12.7856 4.60734C13.3706 5.7911 13.6631 7.1951 13.6631 8.81933C13.6631 10.4367 13.3706 11.8372 12.7856 13.021C12.2006 14.1979 11.3988 15.1063 10.3803 15.7464C9.36167 16.3864 8.19512 16.7065 6.88059 16.7065ZM6.88059 14.9721C7.80971 14.9721 8.64935 14.7381 9.39952 14.2701C10.1566 13.7952 10.7553 13.1001 11.1958 12.1848C11.6432 11.2694 11.8668 10.1476 11.8668 8.81933C11.8668 7.48416 11.6432 6.3589 11.1958 5.44355C10.7553 4.52131 10.1566 3.8262 9.39952 3.3582C8.64935 2.88332 7.80971 2.64588 6.88059 2.64588C5.95148 2.64588 5.10839 2.88332 4.35134 3.3582C3.59428 3.8262 2.99208 4.52131 2.54473 5.44355C2.09738 6.3589 1.8737 7.48416 1.8737 8.81933C1.8737 10.1476 2.09738 11.2694 2.54473 12.1848C2.99208 13.1001 3.59428 13.7952 4.35134 14.2701C5.10839 14.7381 5.95148 14.9721 6.88059 14.9721ZM18.9487 16.7684C18.2192 16.7684 17.5551 16.6308 16.9563 16.3555C16.3576 16.0733 15.8827 15.6672 15.5317 15.1373C15.1807 14.6074 15.0052 13.9673 15.0052 13.2171C15.0052 12.5564 15.1359 12.023 15.3975 11.617C15.659 11.2041 16.0066 10.8806 16.4401 10.6466C16.8806 10.4057 17.3624 10.2268 17.8854 10.1098C18.4154 9.99276 18.9487 9.89985 19.4856 9.83103C20.1876 9.74156 20.7554 9.67273 21.1889 9.62456C21.6294 9.57638 21.9494 9.49379 22.149 9.37679C22.3555 9.25979 22.4587 9.06021 22.4587 8.77803V8.71609C22.4587 7.97968 22.2557 7.40845 21.8496 7.00239C21.4505 6.58945 20.8414 6.38298 20.0224 6.38298C19.1827 6.38298 18.522 6.56881 18.0403 6.94045C17.5585 7.30521 17.2213 7.69751 17.0286 8.11733L15.3355 7.51857C15.6383 6.81657 16.041 6.26943 16.5434 5.87713C17.0527 5.48484 17.6033 5.20955 18.1951 5.05125C18.7939 4.89296 19.3823 4.81381 19.9604 4.81381C20.3321 4.81381 20.7588 4.85855 21.2406 4.94802C21.7223 5.03061 22.1903 5.20955 22.6446 5.48484C23.1057 5.75325 23.4842 6.16275 23.7801 6.71333C24.083 7.25704 24.2344 7.98656 24.2344 8.90191V16.5H22.4587V14.9308H22.3761C22.2591 15.1786 22.0596 15.447 21.7774 15.7361C21.4952 16.0182 21.1201 16.2626 20.6521 16.469C20.191 16.6686 19.6232 16.7684 18.9487 16.7684ZM19.2172 15.1786C19.9192 15.1786 20.511 15.0409 20.9928 14.7657C21.4746 14.4904 21.8393 14.1359 22.0871 13.7023C22.3349 13.2619 22.4587 12.8042 22.4587 12.3293V10.6982C22.383 10.7877 22.2179 10.8703 21.9632 10.946C21.7154 11.0148 21.4264 11.0767 21.096 11.1318C20.7726 11.1868 20.456 11.235 20.1463 11.2763C19.8366 11.3107 19.5888 11.3383 19.403 11.3589C18.9419 11.4208 18.5117 11.5206 18.1125 11.6583C17.7134 11.789 17.3899 11.9852 17.1421 12.2467C16.9013 12.5083 16.7808 12.8661 16.7808 13.3204C16.7808 13.9329 17.0079 14.3974 17.4622 14.714C17.9233 15.0237 18.5083 15.1786 19.2172 15.1786ZM28.1573 12.288L28.116 10.0994H28.4876L33.5255 4.95834H35.7141L30.3459 10.4091H30.1807L28.1573 12.288ZM26.5055 16.5V1.11801H28.2605V16.5H26.5055ZM33.8146 16.5L29.3135 10.8014L30.573 9.56262L36.0857 16.5H33.8146ZM38.7698 1.11801V16.5H37.0148V1.11801H38.7698ZM44.4271 16.7684C43.6976 16.7684 43.0334 16.6308 42.4347 16.3555C41.8359 16.0733 41.361 15.6672 41.01 15.1373C40.659 14.6074 40.4835 13.9673 40.4835 13.2171C40.4835 12.5564 40.6143 12.023 40.8758 11.617C41.1374 11.2041 41.4849 10.8806 41.9185 10.6466C42.359 10.4057 42.8407 10.2268 43.3638 10.1098C43.8937 9.99276 44.4271 9.89985 44.9639 9.83103C45.6659 9.74156 46.2337 9.67273 46.6673 9.62456C47.1078 9.57638 47.4278 9.49379 47.6274 9.37679C47.8339 9.25979 47.9371 9.06021 47.9371 8.77803V8.71609C47.9371 7.97968 47.7341 7.40845 47.328 7.00239C46.9288 6.58945 46.3198 6.38298 45.5008 6.38298C44.6611 6.38298 44.0004 6.56881 43.5186 6.94045C43.0369 7.30521 42.6996 7.69751 42.5069 8.11733L40.8139 7.51857C41.1167 6.81657 41.5193 6.26943 42.0217 5.87713C42.531 5.48484 43.0816 5.20955 43.6735 5.05125C44.2723 4.89296 44.8607 4.81381 45.4388 4.81381C45.8105 4.81381 46.2372 4.85855 46.7189 4.94802C47.2007 5.03061 47.6687 5.20955 48.1229 5.48484C48.584 5.75325 48.9626 6.16275 49.2585 6.71333C49.5613 7.25704 49.7127 7.98656 49.7127 8.90191V16.5H47.9371V14.9308H47.8545C47.7375 15.1786 47.5379 15.447 47.2557 15.7361C46.9736 16.0182 46.5985 16.2626 46.1305 16.469C45.6694 16.6686 45.1016 16.7684 44.4271 16.7684ZM44.6955 15.1786C45.3975 15.1786 45.9894 15.0409 46.4712 14.7657C46.9529 14.4904 47.3177 14.1359 47.5655 13.7023C47.8132 13.2619 47.9371 12.8042 47.9371 12.3293V10.6982C47.8614 10.7877 47.6962 10.8703 47.4416 10.946C47.1938 11.0148 46.9047 11.0767 46.5744 11.1318C46.2509 11.1868 45.9343 11.235 45.6246 11.2763C45.3149 11.3107 45.0672 11.3383 44.8813 11.3589C44.4202 11.4208 43.9901 11.5206 43.5909 11.6583C43.1917 11.789 42.8683 11.9852 42.6205 12.2467C42.3796 12.5083 42.2592 12.8661 42.2592 13.3204C42.2592 13.9329 42.4863 14.3974 42.9405 14.714C43.4016 15.0237 43.9866 15.1786 44.6955 15.1786ZM53.7389 9.56262V16.5H51.9839V4.95834H53.677V6.77528H53.8421C54.1105 6.1834 54.52 5.70852 55.0706 5.35063C55.6212 4.99275 56.3335 4.81381 57.2076 4.81381C57.9853 4.81381 58.6666 4.97211 59.2516 5.28869C59.8366 5.60528 60.2909 6.08704 60.6143 6.73398C60.9447 7.37404 61.1099 8.18615 61.1099 9.17032V16.5H59.3549V9.29421C59.3549 8.39262 59.1174 7.68718 58.6426 7.17789C58.1677 6.66172 57.5207 6.40363 56.7017 6.40363C56.1374 6.40363 55.6315 6.52751 55.1842 6.77528C54.7368 7.02304 54.3824 7.38092 54.1209 7.84892C53.8662 8.31692 53.7389 8.88815 53.7389 9.56262ZM67.7169 16.7478C66.7534 16.7478 65.9034 16.5034 65.167 16.0148C64.4306 15.5262 63.8559 14.8345 63.443 13.9398C63.03 13.0382 62.8236 11.9783 62.8236 10.7601C62.8236 9.54885 63.03 8.4993 63.443 7.61148C63.8628 6.71678 64.4409 6.02854 65.1773 5.54678C65.9137 5.05814 66.7671 4.81381 67.7375 4.81381C68.4946 4.81381 69.0899 4.9377 69.5235 5.18546C69.964 5.43322 70.3012 5.7154 70.5352 6.03198C70.7692 6.34169 70.9516 6.59634 71.0824 6.79592H71.2269V1.11801H72.9819V16.5H71.2888V14.7244H71.0824C70.9516 14.9308 70.7658 15.1958 70.5249 15.5193C70.284 15.8359 69.9399 16.1215 69.4925 16.3761C69.0521 16.6239 68.4602 16.7478 67.7169 16.7478ZM67.944 15.1579C68.6598 15.1579 69.262 14.9721 69.7506 14.6005C70.2393 14.222 70.6109 13.7023 70.8656 13.0416C71.1202 12.374 71.2475 11.6067 71.2475 10.7395C71.2475 9.87232 71.1236 9.11527 70.8759 8.46833C70.6281 7.81451 70.2565 7.30866 69.7609 6.95078C69.2723 6.58601 68.6667 6.40363 67.944 6.40363C67.2007 6.40363 66.5813 6.59634 66.0858 6.98175C65.5903 7.36716 65.2186 7.88677 64.9708 8.54059C64.7231 9.19441 64.5992 9.92738 64.5992 10.7395C64.5992 11.5585 64.7231 12.3018 64.9708 12.9694C65.2255 13.637 65.6006 14.1703 66.0961 14.5695C66.5916 14.9618 67.2076 15.1579 67.944 15.1579ZM0.92222 40.5V25.9726H9.35594V27.1718H2.24821V32.5928H8.90744V33.7823H2.24821V39.3105H9.49244V40.5H0.92222ZM13.1584 33.6945V40.5H11.9007V29.5995H13.1194V31.3253H13.2462C13.4997 30.7598 13.8962 30.308 14.4357 29.97C14.9752 29.632 15.6447 29.463 16.4442 29.463C17.1787 29.463 17.8222 29.6158 18.3747 29.9213C18.9336 30.2268 19.3691 30.6753 19.6811 31.2668C19.9931 31.8583 20.1491 32.5863 20.1491 33.4508V40.5H18.8914V33.5288C18.8914 32.6383 18.6411 31.9298 18.1407 31.4033C17.6402 30.8768 16.9707 30.6135 16.1322 30.6135C15.5602 30.6135 15.0499 30.7403 14.6014 30.9938C14.1529 31.2408 13.7987 31.595 13.5387 32.0565C13.2852 32.5115 13.1584 33.0575 13.1584 33.6945ZM27.2666 40.734C26.2526 40.734 25.3719 40.4968 24.6244 40.0223C23.8769 39.5413 23.3016 38.8783 22.8986 38.0333C22.4956 37.1883 22.2941 36.2165 22.2941 35.118C22.2941 34.0195 22.4924 33.0445 22.8889 32.193C23.2919 31.3415 23.8509 30.672 24.5659 30.1845C25.2809 29.697 26.1096 29.4533 27.0521 29.4533C27.6371 29.4533 28.2059 29.5638 28.7584 29.7848C29.3109 29.9993 29.8081 30.3275 30.2501 30.7695C30.6921 31.2115 31.0399 31.7738 31.2933 32.4563C31.5468 33.1323 31.6736 33.9383 31.6736 34.8743V35.4398H23.1619V34.3283H30.9911L30.4159 34.7573C30.4159 33.9643 30.2794 33.2558 30.0064 32.6318C29.7399 32.0078 29.3564 31.5138 28.8559 31.1498C28.3554 30.7858 27.7541 30.6038 27.0521 30.6038C26.3566 30.6038 25.7456 30.789 25.2191 31.1595C24.6926 31.5235 24.2831 32.011 23.9906 32.622C23.7046 33.2265 23.5616 33.8895 23.5616 34.611V35.2643C23.5616 36.1353 23.7111 36.8958 24.0101 37.5458C24.3156 38.1893 24.7446 38.6898 25.2971 39.0473C25.8561 39.4048 26.5126 39.5835 27.2666 39.5835C27.7801 39.5835 28.2319 39.5023 28.6219 39.3398C29.0119 39.1773 29.3401 38.9595 29.6066 38.6865C29.8731 38.407 30.0746 38.1048 30.2111 37.7798L31.4103 38.1795C31.2413 38.6345 30.9684 39.057 30.5914 39.447C30.2209 39.8305 29.7529 40.1425 29.1874 40.383C28.6284 40.617 27.9881 40.734 27.2666 40.734ZM33.7796 40.5V29.5995H34.9983V31.2863H35.0958C35.3168 30.7338 35.6971 30.2918 36.2366 29.9603C36.7826 29.6223 37.3968 29.4533 38.0793 29.4533C38.1833 29.4533 38.2971 29.4533 38.4206 29.4533C38.5506 29.4533 38.6578 29.4565 38.7423 29.463V30.7403C38.6903 30.7338 38.5928 30.724 38.4498 30.711C38.3068 30.6915 38.1476 30.6818 37.9721 30.6818C37.4131 30.6818 36.9093 30.802 36.4608 31.0425C36.0188 31.283 35.6711 31.6145 35.4176 32.037C35.1641 32.453 35.0373 32.9308 35.0373 33.4703V40.5H33.7796ZM44.095 44.8095C42.9836 44.8095 42.0768 44.6015 41.3748 44.1855C40.6728 43.7695 40.1626 43.2495 39.8441 42.6255L40.8776 41.943C41.0271 42.2225 41.2351 42.4922 41.5016 42.7522C41.7681 43.0187 42.1126 43.2365 42.5351 43.4055C42.9576 43.581 43.4775 43.6687 44.095 43.6687C45.0635 43.6687 45.8435 43.4282 46.435 42.9472C47.033 42.4662 47.332 41.7187 47.332 40.7047V38.2478H47.2053C47.0623 38.5793 46.8543 38.9108 46.5813 39.2423C46.3083 39.5673 45.9508 39.8403 45.5088 40.0613C45.0668 40.2758 44.5175 40.383 43.861 40.383C42.9901 40.383 42.2166 40.1685 41.5406 39.7395C40.8711 39.3105 40.3413 38.6963 39.9513 37.8968C39.5678 37.0908 39.3761 36.1353 39.3761 35.0303C39.3761 33.9253 39.5646 32.9568 39.9416 32.1248C40.3186 31.2863 40.8451 30.633 41.5211 30.165C42.1971 29.6905 42.9836 29.4533 43.8805 29.4533C44.55 29.4533 45.1058 29.5735 45.5478 29.814C45.9898 30.048 46.344 30.3373 46.6105 30.6818C46.877 31.0263 47.085 31.361 47.2345 31.686H47.371V29.5995H48.58V40.7827C48.58 41.7057 48.385 42.463 47.995 43.0545C47.6115 43.6525 47.0818 44.0945 46.4058 44.3805C45.7298 44.6665 44.9595 44.8095 44.095 44.8095ZM44.017 39.2325C45.0635 39.2325 45.8793 38.8555 46.4643 38.1015C47.0493 37.3475 47.3418 36.314 47.3418 35.001C47.3418 34.1495 47.2118 33.3955 46.9518 32.739C46.6983 32.076 46.3213 31.556 45.8208 31.179C45.3268 30.7955 44.7255 30.6038 44.017 30.6038C43.2826 30.6038 42.6651 30.802 42.1646 31.1985C41.6641 31.5885 41.2838 32.115 41.0238 32.778C40.7703 33.441 40.6436 34.182 40.6436 35.001C40.6436 35.833 40.7736 36.5675 41.0336 37.2045C41.2936 37.8415 41.6738 38.3388 42.1743 38.6963C42.6813 39.0538 43.2956 39.2325 44.017 39.2325ZM52.1875 44.5755C51.9405 44.582 51.7065 44.5625 51.4855 44.517C51.271 44.4715 51.0988 44.4162 50.9688 44.3512L51.31 43.2495L51.4563 43.2885C52.0543 43.464 52.5613 43.4412 52.9773 43.2202C53.3998 43.0057 53.754 42.5052 54.04 41.7187L54.4398 40.6072L50.4325 29.5995H51.8073L55.0345 38.8425H55.132L58.369 29.5995H59.734L55.132 42.216C54.937 42.7425 54.6965 43.1812 54.4105 43.5322C54.131 43.8832 53.806 44.1432 53.4355 44.3122C53.065 44.4877 52.649 44.5755 52.1875 44.5755ZM72.4674 40.695C71.2519 40.695 70.1697 40.3895 69.2207 39.7785C68.2717 39.1675 67.5275 38.3063 66.988 37.1948C66.455 36.0768 66.1885 34.7605 66.1885 33.246C66.1885 31.725 66.455 30.4055 66.988 29.2875C67.5275 28.1695 68.2717 27.3051 69.2207 26.6941C70.1697 26.0831 71.2519 25.7776 72.4674 25.7776C73.2409 25.7776 73.9494 25.8978 74.5929 26.1383C75.2429 26.3788 75.8182 26.7136 76.3187 27.1426C76.8192 27.5716 77.2287 28.0753 77.5472 28.6538C77.8722 29.2258 78.0932 29.8465 78.2102 30.516H76.8744C76.7769 30.0155 76.5982 29.554 76.3382 29.1315C76.0782 28.709 75.7532 28.3385 75.3632 28.02C74.9797 27.7016 74.5442 27.4546 74.0567 27.2791C73.5692 27.1036 73.0394 27.0158 72.4674 27.0158C71.5509 27.0158 70.7124 27.2563 69.9519 27.7373C69.1979 28.2118 68.5934 28.9138 68.1385 29.8433C67.69 30.7663 67.4657 31.9005 67.4657 33.246C67.4657 34.5915 67.69 35.7258 68.1385 36.6488C68.5934 37.5718 69.1979 38.2705 69.9519 38.745C70.7124 39.2195 71.5509 39.4568 72.4674 39.4568C73.0394 39.4568 73.5692 39.369 74.0567 39.1935C74.5442 39.018 74.9797 38.771 75.3632 38.4525C75.7532 38.134 76.0782 37.7635 76.3382 37.341C76.5982 36.9185 76.7769 36.457 76.8744 35.9565H78.2102C78.0932 36.626 77.8722 37.25 77.5472 37.8285C77.2287 38.4005 76.8192 38.901 76.3187 39.33C75.8182 39.759 75.2429 40.0938 74.5929 40.3343C73.9494 40.5747 73.2409 40.695 72.4674 40.695ZM84.6939 40.734C83.7514 40.734 82.9194 40.4968 82.1979 40.0223C81.4764 39.5413 80.9109 38.8783 80.5014 38.0333C80.0984 37.1818 79.8969 36.2068 79.8969 35.1083C79.8969 33.9903 80.0984 33.0088 80.5014 32.1638C80.9109 31.3123 81.4764 30.6493 82.1979 30.1748C82.9194 29.6938 83.7514 29.4533 84.6939 29.4533C85.6364 29.4533 86.4651 29.6938 87.1801 30.1748C87.9016 30.6493 88.4671 31.3123 88.8766 32.1638C89.2861 33.0088 89.4909 33.9903 89.4909 35.1083C89.4909 36.2068 89.2861 37.1818 88.8766 38.0333C88.4736 38.8783 87.9114 39.5413 87.1899 40.0223C86.4684 40.4968 85.6364 40.734 84.6939 40.734ZM84.6939 39.5835C85.4544 39.5835 86.0946 39.382 86.6146 38.979C87.1411 38.5695 87.5409 38.0235 87.8139 37.341C88.0869 36.6585 88.2234 35.9143 88.2234 35.1083C88.2234 34.2893 88.0869 33.5385 87.8139 32.856C87.5409 32.1735 87.1411 31.6275 86.6146 31.218C86.0881 30.8085 85.4479 30.6038 84.6939 30.6038C83.9399 30.6038 83.2996 30.8118 82.7731 31.2278C82.2531 31.6373 81.8534 32.1833 81.5739 32.8658C81.3009 33.5418 81.1644 34.2893 81.1644 35.1083C81.1644 35.9143 81.3009 36.6585 81.5739 37.341C81.8469 38.0235 82.2466 38.5695 82.7731 38.979C83.2996 39.382 83.9399 39.5835 84.6939 39.5835ZM92.8936 33.6945V40.5H91.6359V29.5995H92.8546V31.3253H92.9814C93.2349 30.7598 93.6314 30.308 94.1709 29.97C94.7103 29.632 95.3798 29.463 96.1793 29.463C96.9138 29.463 97.5573 29.6158 98.1098 29.9213C98.6688 30.2268 99.1043 30.6753 99.4163 31.2668C99.7283 31.8583 99.8843 32.5863 99.8843 33.4508V40.5H98.6266V33.5288C98.6266 32.6383 98.3763 31.9298 97.8758 31.4033C97.3753 30.8768 96.7058 30.6135 95.8673 30.6135C95.2953 30.6135 94.7851 30.7403 94.3366 30.9938C93.8881 31.2408 93.5339 31.595 93.2739 32.0565C93.0204 32.5115 92.8936 33.0575 92.8936 33.6945ZM109.907 32.0078L108.757 32.3198C108.588 31.8323 108.305 31.4195 107.909 31.0815C107.519 30.737 106.956 30.5648 106.222 30.5648C105.487 30.5648 104.883 30.7435 104.408 31.101C103.934 31.452 103.697 31.9038 103.697 32.4563C103.697 32.9178 103.856 33.298 104.174 33.597C104.499 33.8895 105 34.1203 105.676 34.2893L107.324 34.689C108.234 34.9165 108.916 35.2708 109.371 35.7518C109.833 36.2263 110.063 36.8275 110.063 37.5555C110.063 38.1665 109.891 38.7125 109.547 39.1935C109.209 39.6745 108.737 40.0515 108.133 40.3245C107.528 40.5975 106.826 40.734 106.027 40.734C104.961 40.734 104.083 40.4935 103.394 40.0125C102.705 39.525 102.263 38.8295 102.068 37.926L103.277 37.6335C103.427 38.277 103.732 38.7645 104.194 39.096C104.655 39.4275 105.26 39.5933 106.007 39.5933C106.839 39.5933 107.509 39.4048 108.016 39.0278C108.523 38.6508 108.776 38.1828 108.776 37.6238C108.776 36.7268 108.182 36.132 106.992 35.8395L105.218 35.4105C104.269 35.183 103.567 34.8255 103.112 34.338C102.657 33.8505 102.429 33.2428 102.429 32.5148C102.429 31.9168 102.592 31.387 102.917 30.9255C103.248 30.464 103.7 30.1033 104.272 29.8433C104.844 29.5833 105.494 29.4533 106.222 29.4533C107.223 29.4533 108.022 29.684 108.62 30.1455C109.218 30.6005 109.647 31.2213 109.907 32.0078ZM119.131 36.3465V29.5995H120.388V40.5H119.131V38.6865H119.033C118.773 39.2455 118.367 39.7135 117.815 40.0905C117.262 40.461 116.586 40.643 115.787 40.6365C115.091 40.6365 114.474 40.487 113.934 40.188C113.401 39.8825 112.979 39.434 112.667 38.8425C112.361 38.2445 112.208 37.5165 112.208 36.6585V29.5995H113.466V36.5903C113.466 37.4353 113.716 38.1178 114.217 38.6378C114.724 39.1578 115.367 39.4145 116.147 39.408C116.641 39.408 117.116 39.291 117.571 39.057C118.026 38.823 118.4 38.4785 118.692 38.0235C118.985 37.5685 119.131 37.0095 119.131 36.3465ZM124.366 25.9726V40.5H123.109V25.9726H124.366ZM131.367 29.5995V30.7013H126.17V29.5995H131.367ZM127.798 27.0061H129.056V37.653C129.056 38.2445 129.202 38.6898 129.495 38.9888C129.787 39.2813 130.194 39.4275 130.714 39.4275C130.831 39.4275 130.948 39.421 131.065 39.408C131.188 39.3885 131.318 39.3625 131.455 39.33L131.728 40.4708C131.578 40.5292 131.406 40.5747 131.211 40.6072C131.016 40.6397 130.814 40.656 130.606 40.656C129.8 40.656 129.131 40.409 128.598 39.915C128.065 39.4145 127.798 38.7613 127.798 37.9553V27.0061ZM133.619 40.5V29.5995H134.877V40.5H133.619ZM134.253 27.7373C133.993 27.7373 133.769 27.6496 133.58 27.4741C133.398 27.2921 133.307 27.0743 133.307 26.8208C133.307 26.5738 133.398 26.3626 133.58 26.1871C133.769 26.0116 133.993 25.9238 134.253 25.9238C134.513 25.9238 134.734 26.0116 134.916 26.1871C135.098 26.3626 135.189 26.5738 135.189 26.8208C135.189 27.0743 135.098 27.2921 134.916 27.4741C134.734 27.6496 134.513 27.7373 134.253 27.7373ZM138.855 33.6945V40.5H137.597V29.5995H138.816V31.3253H138.943C139.196 30.7598 139.593 30.308 140.132 29.97C140.672 29.632 141.341 29.463 142.141 29.463C142.875 29.463 143.519 29.6158 144.071 29.9213C144.63 30.2268 145.066 30.6753 145.378 31.2668C145.69 31.8583 145.846 32.5863 145.846 33.4508V40.5H144.588V33.5288C144.588 32.6383 144.338 31.9298 143.837 31.4033C143.337 30.8768 142.667 30.6135 141.829 30.6135C141.257 30.6135 140.746 30.7403 140.298 30.9938C139.849 31.2408 139.495 31.595 139.235 32.0565C138.982 32.5115 138.855 33.0575 138.855 33.6945ZM152.71 44.8095C151.598 44.8095 150.691 44.6015 149.989 44.1855C149.287 43.7695 148.777 43.2495 148.459 42.6255L149.492 41.943C149.642 42.2225 149.85 42.4922 150.116 42.7522C150.383 43.0187 150.727 43.2365 151.15 43.4055C151.572 43.581 152.092 43.6687 152.71 43.6687C153.678 43.6687 154.458 43.4282 155.05 42.9472C155.648 42.4662 155.947 41.7187 155.947 40.7047V38.2478H155.82C155.677 38.5793 155.469 38.9108 155.196 39.2423C154.923 39.5673 154.565 39.8403 154.123 40.0613C153.681 40.2758 153.132 40.383 152.476 40.383C151.605 40.383 150.831 40.1685 150.155 39.7395C149.486 39.3105 148.956 38.6963 148.566 37.8968C148.182 37.0908 147.991 36.1353 147.991 35.0303C147.991 33.9253 148.179 32.9568 148.556 32.1248C148.933 31.2863 149.46 30.633 150.136 30.165C150.812 29.6905 151.598 29.4533 152.495 29.4533C153.165 29.4533 153.72 29.5735 154.162 29.814C154.604 30.048 154.959 30.3373 155.225 30.6818C155.492 31.0263 155.7 31.361 155.849 31.686H155.986V29.5995H157.195V40.7827C157.195 41.7057 157 42.463 156.61 43.0545C156.226 43.6525 155.696 44.0945 155.02 44.3805C154.344 44.6665 153.574 44.8095 152.71 44.8095ZM152.632 39.2325C153.678 39.2325 154.494 38.8555 155.079 38.1015C155.664 37.3475 155.956 36.314 155.956 35.001C155.956 34.1495 155.826 33.3955 155.566 32.739C155.313 32.076 154.936 31.556 154.435 31.179C153.941 30.7955 153.34 30.6038 152.632 30.6038C151.897 30.6038 151.28 30.802 150.779 31.1985C150.279 31.5885 149.898 32.115 149.638 32.778C149.385 33.441 149.258 34.182 149.258 35.001C149.258 35.833 149.388 36.5675 149.648 37.2045C149.908 37.8415 150.288 38.3388 150.789 38.6963C151.296 39.0538 151.91 39.2325 152.632 39.2325Z" fill="white"/>
</svg>
